<svg width="200" height="200" viewBox="0 0 200 200" fill="none" xmlns="http://www.w3.org/2000/svg">
  <path d="M100 20L120 60L160 70L130 100L140 140L100 120L60 140L70 100L40 70L80 60L100 20Z" fill="#84BD00" fill-opacity="0.8"/>
  <path d="M100 40L115 70L145 78L122.5 100L130 130L100 115L70 130L77.5 100L55 78L85 70L100 40Z" fill="#84BD00"/>
  <path d="M100 60L110 80L130 85L115 100L120 120L100 110L80 120L85 100L70 85L90 80L100 60Z" fill="#111111"/>
  <path d="M95 75L100 85L110 88L102.5 95L105 105L95 100L85 105L88 95L80 88L90 85L95 75Z" fill="#84BD00"/>
</svg>