<svg width="32" height="32" viewBox="0 0 32 32" fill="none" xmlns="http://www.w3.org/2000/svg">
  <rect width="32" height="32" rx="4" fill="#111111"/>
  <path d="M8 16C8 11.582 11.582 8 16 8C20.418 8 24 11.582 24 16C24 20.418 20.418 24 16 24C11.582 24 8 20.418 8 16Z" fill="#84BD00"/>
  <path d="M10 16C10 12.686 12.686 10 16 10C19.314 10 22 12.686 22 16C22 19.314 19.314 22 16 22C12.686 22 10 19.314 10 16Z" fill="#111111"/>
  <path d="M12 16C12 13.791 13.791 12 16 12C18.209 12 20 13.791 20 16C20 18.209 18.209 20 16 20C13.791 20 12 18.209 12 16Z" fill="#84BD00"/>
</svg>